 <svg  version="1.0" xmlns="http://www.w3.org/2000/svg"  width="900.000000pt" height="966.000000pt" viewBox="0 0 900.000000 966.000000"  preserveAspectRatio="xMidYMid meet">  <g transform="translate(0.000000,966.000000) scale(0.100000,-0.100000)" fill="#ffffff" stroke="none"> <path d="M4524 8875 c-178 -33 -376 -176 -525 -380 l-54 -74 -93 -1 c-83 0 -100 -3 -155 -31 -78 -38 -127 -85 -163 -157 -26 -51 -29 -67 -29 -152 0 -85 3 -101 28 -150 16 -30 44 -71 62 -90 38 -39 38 -51 -5 -160 -22 -55 -26 -67 -54 -166 -8 -28 -20 -61 -28 -73 -7 -12 -71 -51 -143 -86 -155 -76 -180 -91 -305 -173 l-95 -63 -60 7 c-33 3 -77 13 -99 20 -21 8 -49 14 -63 14 -13 0 -52 6 -86 14 -141 32 -473 67 -632 66 -199 -1 -435 -42 -565 -97 -178 -77 -288 -175 -355 -318 -111 -237 -55 -558 164 -935 75 -129 229 -351 266 -385 6 -5 27 -30 45 -55 19 -25 51 -63 71 -85 20 -22 67 -74 104 -115 l67 -75 -9 -65 c-10 -83 -11 -466 0 -545 l8 -60 -44 -45 c-55 -57 -216 -246 -282 -331 -302 -391 -455 -731 -455 -1011 0 -184 50 -308 175 -433 63 -63 99 -89 165 -122 143 -70 295 -109 467 -119 124 -7 121 -6 166 -86 27 -47 81 -96 147 -133 29 -17 53 -20 145 -20 97 1 115 3 154 24 87 48 152 129 181 224 15 48 13 47 215 87 22 4 54 11 70 15 26 5 42 -2 113 -49 46 -31 86 -56 89 -56 4 0 14 -6 22 -14 29 -25 226 -130 299 -159 46 -19 64 -48 97 -162 16 -56 23 -76 60 -175 8 -22 22 -58 30 -80 29 -76 48 -125 68 -170 31 -72 137 -282 158 -315 10 -16 23 -39 29 -50 16 -32 31 -55 95 -140 171 -229 345 -357 544 -400 104 -22 215 -10 321 33 14 6 32 13 40 16 8 4 29 15 45 26 17 11 37 23 45 26 28 13 105 78 169 143 58 60 181 213 181 225 0 3 13 24 29 48 41 62 72 119 131 238 79 159 109 231 184 438 36 100 39 109 71 222 8 30 21 60 27 66 7 7 65 39 128 71 134 69 143 74 228 130 35 24 66 43 69 43 3 0 23 14 45 32 45 35 76 38 161 14 48 -13 114 -28 262 -56 33 -6 98 -16 145 -21 47 -5 112 -13 145 -19 97 -16 495 -13 595 6 157 28 327 84 371 121 8 7 19 13 23 13 19 0 129 98 166 147 82 108 130 248 130 378 0 125 -46 305 -117 463 l-24 53 25 34 c14 19 26 38 26 43 0 5 6 15 14 21 8 6 16 24 19 39 3 15 11 49 17 76 10 41 9 59 -5 115 -34 132 -125 226 -256 263 -62 17 -79 18 -123 8 -106 -24 -97 -26 -148 37 -66 82 -90 108 -170 191 l-71 74 -1 296 -1 297 65 70 c36 39 88 97 117 130 28 33 62 71 74 85 87 100 283 379 341 485 116 211 169 359 194 535 41 295 -77 529 -331 658 -98 49 -187 78 -328 107 -108 21 -537 21 -686 0 -241 -35 -381 -61 -487 -91 -80 -22 -100 -18 -164 31 -32 25 -61 45 -65 45 -3 0 -21 11 -38 24 -38 28 -104 66 -245 138 -57 29 -106 57 -110 63 -4 5 -13 30 -20 55 -25 88 -30 105 -43 140 -13 38 -33 93 -56 155 -9 22 -22 58 -30 80 -77 208 -225 490 -329 628 -105 138 -235 267 -315 312 -92 52 -152 74 -244 91 -94 16 -107 16 -201 -1z m272 -176 c106 -47 224 -143 322 -262 33 -40 134 -194 170 -257 53 -95 136 -274 175 -375 8 -22 22 -59 31 -82 17 -44 34 -92 56 -153 6 -19 14 -46 17 -59 7 -27 6 -27 -92 3 -122 37 -193 57 -235 65 -63 13 -150 29 -217 42 -89 16 -383 29 -538 23 -147 -5 -321 -26 -417 -50 -32 -8 -66 -14 -77 -14 -18 0 -49 -8 -191 -51 -36 -11 -71 -19 -77 -19 -17 0 -16 51 1 92 8 18 22 53 32 78 10 25 19 47 21 49 2 3 27 4 56 2 103 -3 234 64 293 151 88 132 84 278 -12 409 -19 26 -34 49 -34 53 0 12 108 143 162 196 60 60 187 150 210 150 8 0 19 5 24 10 35 35 239 34 320 -1z m-886 -429 c38 -10 84 -49 113 -92 12 -20 17 -47 17 -100 -1 -63 -4 -78 -28 -113 -41 -58 -93 -85 -170 -85 -75 0 -127 28 -169 91 -36 55 -39 156 -5 211 51 83 142 116 242 88z m-1469 -1215 c57 -9 138 -23 179 -30 41 -8 92 -17 113 -20 31 -5 37 -10 37 -30 0 -14 -4 -25 -8 -25 -16 0 -164 -144 -250 -243 -49 -56 -123 -149 -165 -207 -43 -58 -81 -109 -85 -115 -4 -5 -32 -50 -61 -100 -29 -49 -56 -97 -61 -105 -30 -49 -140 -286 -140 -300 0 -6 -4 -18 -10 -28 -11 -18 -36 -89 -50 -137 -4 -16 -13 -43 -18 -60 -29 -87 -42 -132 -42 -148 0 -27 -31 -117 -40 -117 -5 0 -37 34 -72 77 -34 42 -77 92 -94 112 -58 69 -214 284 -214 296 0 2 -16 27 -35 57 -37 55 -131 244 -157 313 -79 210 -84 394 -14 528 82 159 287 268 556 297 116 13 512 3 631 -15z m5071 0 c158 -30 283 -74 363 -129 57 -39 125 -119 157 -185 31 -64 32 -70 32 -201 0 -135 -3 -153 -49 -280 -46 -126 -119 -272 -186 -374 -22 -32 -39 -60 -39 -63 0 -8 -183 -248 -250 -328 -93 -111 -139 -157 -153 -152 -7 2 -15 28 -18 58 -3 30 -11 70 -17 89 -5 19 -18 62 -27 95 -9 33 -21 74 -27 90 -5 17 -13 44 -18 60 -5 17 -18 55 -30 85 -12 30 -25 67 -30 81 -4 14 -12 34 -17 45 -6 10 -32 64 -59 119 -146 302 -330 555 -584 802 -71 69 -100 103 -90 107 69 22 250 55 440 80 150 20 497 20 602 1z m-2704 -1411 c80 -21 180 -63 237 -97 131 -79 276 -245 329 -377 39 -96 45 -118 60 -205 20 -115 20 -159 -3 -270 -31 -147 -74 -247 -151 -350 -88 -117 -174 -188 -312 -257 -44 -22 -89 -49 -99 -59 -23 -23 -26 -103 -5 -151 8 -18 21 -51 29 -73 37 -99 50 -132 64 -162 9 -18 16 -49 17 -69 1 -34 -3 -39 -49 -65 -130 -72 -512 -257 -725 -351 -25 -10 -60 -26 -78 -35 -44 -22 -58 -8 -38 38 8 19 21 50 30 71 9 20 16 42 16 50 0 8 4 18 8 24 7 8 24 50 67 164 42 114 76 200 91 237 8 17 14 36 14 41 0 6 6 23 14 39 51 103 66 175 46 222 -9 23 -32 39 -108 77 -54 26 -99 50 -102 53 -3 4 -18 15 -35 25 -83 54 -206 200 -257 306 -71 149 -99 311 -79 461 33 244 144 433 340 579 59 43 209 120 238 121 10 0 34 7 53 14 52 20 315 20 388 -1z m2656 -1366 c30 -35 68 -79 85 -98 30 -34 41 -83 21 -95 -5 -3 -19 -26 -30 -52 -15 -35 -20 -67 -20 -138 0 -81 4 -100 26 -145 35 -69 104 -136 172 -166 45 -20 70 -24 152 -24 l97 0 18 -42 c10 -24 23 -56 30 -73 35 -82 68 -236 67 -320 -1 -238 -154 -410 -427 -478 -132 -34 -213 -42 -415 -42 -239 0 -415 19 -670 72 -101 21 -102 21 -98 33 2 6 60 68 128 138 175 177 264 285 372 452 77 119 133 223 206 380 47 103 61 138 98 250 59 180 94 311 94 356 0 28 15 54 31 54 4 0 32 -28 63 -62z m-5608 -15 c3 -16 10 -38 15 -51 5 -13 9 -31 9 -41 0 -32 110 -372 139 -429 5 -9 39 -78 75 -152 70 -140 73 -147 119 -218 15 -24 27 -45 27 -47 0 -6 114 -169 154 -220 82 -107 236 -271 338 -361 27 -23 44 -45 40 -51 -11 -18 -59 -33 -101 -33 -34 0 -40 4 -61 43 -107 195 -364 240 -536 93 -42 -36 -104 -139 -104 -174 0 -28 -12 -30 -130 -22 -128 10 -284 45 -346 78 -11 6 -26 13 -34 16 -72 27 -169 119 -219 206 -25 44 -51 154 -51 218 0 135 76 369 173 537 101 173 158 257 271 400 98 124 196 235 207 235 5 0 11 -12 15 -27z m6087 -180 c78 -43 117 -104 117 -184 0 -180 -217 -271 -344 -143 -101 101 -78 240 54 327 35 22 132 22 173 0z m-2871 -748 c11 -28 26 -63 33 -80 8 -16 17 -42 21 -58 3 -15 10 -30 15 -33 5 -3 9 -15 9 -27 0 -12 7 -35 15 -51 8 -15 15 -33 15 -38 0 -5 14 -39 30 -75 17 -35 30 -70 30 -77 0 -7 7 -21 15 -32 8 -10 15 -25 15 -32 0 -8 6 -28 14 -45 18 -44 41 -102 91 -237 43 -114 60 -156 67 -165 4 -5 8 -16 8 -25 0 -8 7 -28 15 -44 8 -15 15 -34 15 -40 0 -18 54 -66 74 -66 15 0 17 -7 13 -42 -2 -24 -10 -59 -17 -78 -110 -298 -105 -287 -199 -480 -39 -80 -86 -169 -106 -198 -19 -30 -35 -56 -35 -59 0 -7 -88 -121 -144 -187 -67 -77 -168 -156 -246 -192 -187 -85 -376 -42 -553 126 -94 88 -185 205 -264 335 -6 11 -47 92 -91 180 -74 150 -90 185 -127 285 -39 105 -48 127 -61 158 -8 18 -14 39 -14 47 0 8 -8 30 -17 50 -17 35 -17 35 13 68 17 17 37 50 46 72 9 22 24 60 33 85 10 25 24 59 31 77 8 17 14 36 14 41 0 6 6 23 14 39 8 15 22 47 30 71 116 310 100 287 221 337 19 8 51 22 70 30 19 8 51 21 70 30 19 8 50 21 68 29 58 26 160 73 262 120 101 48 148 69 175 80 8 4 35 18 60 32 92 53 234 124 243 121 5 -1 18 -25 29 -52z m-2705 -600 c91 -38 143 -109 143 -195 0 -92 -68 -175 -164 -201 -107 -29 -245 82 -246 199 0 78 59 160 140 193 56 22 81 23 127 4z"/> </g> </svg> 